<?xml version="1.0" encoding="UTF-8"?>
<!DOCTYPE xmeml>
<xmeml version="4">
	<project>
		<name>3</name>
		<children>
			<sequence id="sequence-1" TL.SQAudioVisibleBase="0" TL.SQVideoVisibleBase="0" TL.SQVisibleBaseTime="1998913180895" TL.SQAVDividerPosition="0.5" TL.SQHideShyTracks="0" TL.SQHeaderWidth="236" Monitor.ProgramZoomOut="4670092627200" Monitor.ProgramZoomIn="0" TL.SQTimePerPixel="0.0028426340657741831" AM.TrackVScrollPosition="0" AM.TrackScrollPosition="0" MZ.EditLine="2424040819200" MZ.Sequence.PreviewFrameSizeHeight="1000" MZ.Sequence.PreviewFrameSizeWidth="1000" MZ.Sequence.AudioTimeDisplayFormat="200" MZ.Sequence.PreviewRenderingClassID="1297106761" MZ.Sequence.PreviewRenderingPresetCodec="1297107278" MZ.Sequence.PreviewRenderingPresetPath="EncoderPresets/SequencePreview/795454d9-d3c2-429d-9474-923ab13b7018/I-Frame Only MPEG.epr" MZ.Sequence.PreviewUseMaxRenderQuality="false" MZ.Sequence.PreviewUseMaxBitDepth="false" MZ.Sequence.EditingModeGUID="795454d9-d3c2-429d-9474-923ab13b7018" MZ.Sequence.VideoTimeDisplayFormat="103" MZ.WorkOutPoint="15239249625600" MZ.WorkInPoint="0" MZ.ZeroPoint="0" explodedTracks="true">
				<uuid>88b616da-d042-4b07-adca-3a0a27a8e230</uuid>
				<duration>551</duration>
				<rate>
					<timebase>30</timebase>
					<ntsc>TRUE</ntsc>
				</rate>
				<name>master</name>
				<media>
					<video>
						<format>
							<samplecharacteristics>
								<rate>
									<timebase>30</timebase>
									<ntsc>TRUE</ntsc>
								</rate>
								<codec>
									<name>Apple ProRes 422</name>
									<appspecificdata>
										<appname>Final Cut Pro</appname>
										<appmanufacturer>Apple Inc.</appmanufacturer>
										<appversion>7.0</appversion>
										<data>
											<qtcodec>
												<codecname>Apple ProRes 422</codecname>
												<codectypename>Apple ProRes 422</codectypename>
												<codectypecode>apcn</codectypecode>
												<codecvendorcode>appl</codecvendorcode>
												<spatialquality>1024</spatialquality>
												<temporalquality>0</temporalquality>
												<keyframerate>0</keyframerate>
												<datarate>0</datarate>
											</qtcodec>
										</data>
									</appspecificdata>
								</codec>
								<width>1000</width>
								<height>1000</height>
								<anamorphic>FALSE</anamorphic>
								<pixelaspectratio>square</pixelaspectratio>
								<fielddominance>lower</fielddominance>
								<colordepth>24</colordepth>
							</samplecharacteristics>
						</format>
						<track TL.SQTrackShy="0" TL.SQTrackExpandedHeight="25" TL.SQTrackExpanded="0" MZ.TrackTargeted="1">
							<clipitem id="clipitem-1">
								<masterclipid>masterclip-1</masterclipid>
								<name>text.mp4</name>
								<enabled>TRUE</enabled>
								<duration>306</duration>
								<rate>
									<timebase>30</timebase>
									<ntsc>TRUE</ntsc>
								</rate>
								<start>0</start>
								<end>114</end>
								<in>84</in>
								<out>198</out>
								<pproTicksIn>711956044800</pproTicksIn>
								<pproTicksOut>1678182105600</pproTicksOut>
								<alphatype>none</alphatype>
								<pixelaspectratio>square</pixelaspectratio>
								<anamorphic>FALSE</anamorphic>
								<file id="file-1">
									<name>text.mp4</name>
									<pathurl>file://localhost/Users/Scott-T/Documents/text.mp4</pathurl>
									<rate>
										<timebase>30</timebase>
										<ntsc>FALSE</ntsc>
									</rate>
									<duration>307</duration>
									<timecode>
										<rate>
											<timebase>30</timebase>
											<ntsc>FALSE</ntsc>
										</rate>
										<string>00:00:15:05</string>
										<frame>455</frame>
										<displayformat>NDF</displayformat>
									</timecode>
									<media>
										<video>
											<samplecharacteristics>
												<rate>
													<timebase>30</timebase>
													<ntsc>FALSE</ntsc>
												</rate>
												<width>1000</width>
												<height>1000</height>
												<anamorphic>FALSE</anamorphic>
												<pixelaspectratio>square</pixelaspectratio>
												<fielddominance>lower</fielddominance>
											</samplecharacteristics>
										</video>
										<audio>
											<samplecharacteristics>
												<depth>16</depth>
												<samplerate>48000</samplerate>
											</samplecharacteristics>
											<channelcount>2</channelcount>
										</audio>
									</media>
								</file>
								<logginginfo>
									<description></description>
									<scene></scene>
									<shottake></shottake>
									<lognote></lognote>
									<good></good>
									<originalvideofilename></originalvideofilename>
									<originalaudiofilename></originalaudiofilename>
								</logginginfo>
								<colorinfo>
									<lut></lut>
									<lut1></lut1>
									<asc_sop></asc_sop>
									<asc_sat></asc_sat>
									<lut2></lut2>
								</colorinfo>
								<labels>
									<label2>Iris</label2>
								</labels>
							</clipitem>
							<clipitem id="clipitem-2">
								<masterclipid>masterclip-2</masterclipid>
								<name>jan viv tamu c6.mp4</name>
								<enabled>TRUE</enabled>
								<duration>2341</duration>
								<rate>
									<timebase>30</timebase>
									<ntsc>TRUE</ntsc>
								</rate>
								<start>114</start>
								<end>234</end>
								<in>240</in>
								<out>360</out>
								<pproTicksIn>2034160128000</pproTicksIn>
								<pproTicksOut>3051240192000</pproTicksOut>
								<alphatype>none</alphatype>
								<pixelaspectratio>square</pixelaspectratio>
								<anamorphic>FALSE</anamorphic>
								<file id="file-2">
									<name>jan viv tamu c6.mp4</name>
									<pathurl>file://localhost/Users/Scott-T/Documents/jan%20viv%20tamu%20c6.mp4</pathurl>
									<rate>
										<timebase>30</timebase>
										<ntsc>TRUE</ntsc>
									</rate>
									<duration>2341</duration>
									<timecode>
										<rate>
											<timebase>30</timebase>
											<ntsc>TRUE</ntsc>
										</rate>
										<string>00;00;00;00</string>
										<frame>0</frame>
										<displayformat>DF</displayformat>
									</timecode>
									<media>
										<video>
											<samplecharacteristics>
												<rate>
													<timebase>30</timebase>
													<ntsc>TRUE</ntsc>
												</rate>
												<width>1000</width>
												<height>1000</height>
												<anamorphic>FALSE</anamorphic>
												<pixelaspectratio>square</pixelaspectratio>
												<fielddominance>lower</fielddominance>
											</samplecharacteristics>
										</video>
										<audio>
											<samplecharacteristics>
												<depth>16</depth>
												<samplerate>48000</samplerate>
											</samplecharacteristics>
											<channelcount>2</channelcount>
										</audio>
									</media>
								</file>
								<logginginfo>
									<description></description>
									<scene></scene>
									<shottake></shottake>
									<lognote></lognote>
									<good></good>
									<originalvideofilename></originalvideofilename>
									<originalaudiofilename></originalaudiofilename>
								</logginginfo>
								<colorinfo>
									<lut></lut>
									<lut1></lut1>
									<asc_sop></asc_sop>
									<asc_sat></asc_sat>
									<lut2></lut2>
								</colorinfo>
								<labels>
									<label2>Iris</label2>
								</labels>
							</clipitem>
							<clipitem id="clipitem-3">
								<masterclipid>masterclip-2</masterclipid>
								<name>jan viv tamu c6.mp4</name>
								<enabled>TRUE</enabled>
								<duration>2341</duration>
								<rate>
									<timebase>30</timebase>
									<ntsc>TRUE</ntsc>
								</rate>
								<start>234</start>
								<end>286</end>
								<in>821</in>
								<out>873</out>
								<pproTicksIn>6958522771200</pproTicksIn>
								<pproTicksOut>7399257465600</pproTicksOut>
								<alphatype>none</alphatype>
								<file id="file-2"/>
								<logginginfo>
									<description></description>
									<scene></scene>
									<shottake></shottake>
									<lognote></lognote>
									<good></good>
									<originalvideofilename></originalvideofilename>
									<originalaudiofilename></originalaudiofilename>
								</logginginfo>
								<colorinfo>
									<lut></lut>
									<lut1></lut1>
									<asc_sop></asc_sop>
									<asc_sat></asc_sat>
									<lut2></lut2>
								</colorinfo>
								<labels>
									<label2>Iris</label2>
								</labels>
							</clipitem>
							<clipitem id="clipitem-4">
								<masterclipid>masterclip-3</masterclipid>
								<name>Sequence 02</name>
								<enabled>TRUE</enabled>
								<duration>2455</duration>
								<rate>
									<timebase>30</timebase>
									<ntsc>TRUE</ntsc>
								</rate>
								<start>288</start>
								<end>368</end>
								<in>62</in>
								<out>142</out>
								<pproTicksIn>525491366400</pproTicksIn>
								<pproTicksOut>1203544742400</pproTicksOut>
								<sequence id="sequence-2" TL.SQAudioVisibleBase="0" TL.SQVideoVisibleBase="0" TL.SQVisibleBaseTime="0" TL.SQAVDividerPosition="0.5" TL.SQHideShyTracks="0" TL.SQHeaderWidth="236" Monitor.ProgramZoomOut="4492103616000" Monitor.ProgramZoomIn="0" TL.SQTimePerPixel="0.040421519386974428" AM.TrackVScrollPosition="0" AM.TrackScrollPosition="0" MZ.EditLine="525491366400" MZ.Sequence.PreviewFrameSizeHeight="1000" MZ.Sequence.PreviewFrameSizeWidth="1000" MZ.Sequence.AudioTimeDisplayFormat="200" MZ.Sequence.PreviewRenderingClassID="1297106761" MZ.Sequence.PreviewRenderingPresetCodec="1297107278" MZ.Sequence.PreviewRenderingPresetPath="EncoderPresets/SequencePreview/795454d9-d3c2-429d-9474-923ab13b7018/I-Frame Only MPEG.epr" MZ.Sequence.PreviewUseMaxRenderQuality="false" MZ.Sequence.PreviewUseMaxBitDepth="false" MZ.Sequence.EditingModeGUID="795454d9-d3c2-429d-9474-923ab13b7018" MZ.Sequence.VideoTimeDisplayFormat="102" MZ.WorkOutPoint="15239249625600" MZ.WorkInPoint="0" MZ.ZeroPoint="0">
									<duration>530</duration>
									<rate>
										<timebase>30</timebase>
										<ntsc>TRUE</ntsc>
									</rate>
									<name>Sequence 02</name>
									<media>
										<video>
											<format>
												<samplecharacteristics>
													<rate>
														<timebase>30</timebase>
														<ntsc>TRUE</ntsc>
													</rate>
													<codec>
														<name>Apple ProRes 422</name>
														<appspecificdata>
															<appname>Final Cut Pro</appname>
															<appmanufacturer>Apple Inc.</appmanufacturer>
															<appversion>7.0</appversion>
															<data>
																<qtcodec>
																	<codecname>Apple ProRes 422</codecname>
																	<codectypename>Apple ProRes 422</codectypename>
																	<codectypecode>apcn</codectypecode>
																	<codecvendorcode>appl</codecvendorcode>
																	<spatialquality>1024</spatialquality>
																	<temporalquality>0</temporalquality>
																	<keyframerate>0</keyframerate>
																	<datarate>0</datarate>
																</qtcodec>
															</data>
														</appspecificdata>
													</codec>
													<width>1000</width>
													<height>1000</height>
													<anamorphic>FALSE</anamorphic>
													<pixelaspectratio>square</pixelaspectratio>
													<fielddominance>lower</fielddominance>
													<colordepth>24</colordepth>
												</samplecharacteristics>
											</format>
											<track TL.SQTrackShy="0" TL.SQTrackExpandedHeight="25" TL.SQTrackExpanded="0" MZ.TrackTargeted="1">
												<clipitem id="clipitem-5">
													<masterclipid>masterclip-4</masterclipid>
													<name>chad.png</name>
													<enabled>TRUE</enabled>
													<duration>1294705</duration>
													<rate>
														<timebase>30</timebase>
														<ntsc>TRUE</ntsc>
													</rate>
													<start>0</start>
													<end>137</end>
													<in>107892</in>
													<out>108029</out>
													<pproTicksIn>914456685542400</pproTicksIn>
													<pproTicksOut>915617851948800</pproTicksOut>
													<alphatype>straight</alphatype>
													<pixelaspectratio>square</pixelaspectratio>
													<anamorphic>FALSE</anamorphic>
													<file id="file-3">
														<name>chad.png</name>
														<pathurl>file://localhost/Users/Scott-T/Documents/chad.png</pathurl>
														<rate>
															<timebase>30</timebase>
															<ntsc>TRUE</ntsc>
														</rate>
														<timecode>
															<rate>
																<timebase>30</timebase>
																<ntsc>TRUE</ntsc>
															</rate>
															<string>00:00:00:00</string>
															<frame>0</frame>
															<displayformat>NDF</displayformat>
														</timecode>
														<media>
															<video>
																<samplecharacteristics>
																	<rate>
																		<timebase>30</timebase>
																		<ntsc>TRUE</ntsc>
																	</rate>
																	<width>264</width>
																	<height>279</height>
																	<anamorphic>FALSE</anamorphic>
																	<pixelaspectratio>square</pixelaspectratio>
																	<fielddominance>none</fielddominance>
																</samplecharacteristics>
															</video>
														</media>
													</file>
													<logginginfo>
														<description></description>
														<scene></scene>
														<shottake></shottake>
														<lognote></lognote>
														<good></good>
														<originalvideofilename></originalvideofilename>
														<originalaudiofilename></originalaudiofilename>
													</logginginfo>
													<colorinfo>
														<lut></lut>
														<lut1></lut1>
														<asc_sop></asc_sop>
														<asc_sat></asc_sat>
														<lut2></lut2>
													</colorinfo>
													<labels>
														<label2>Lavender</label2>
													</labels>
												</clipitem>
												<clipitem id="clipitem-6">
													<masterclipid>masterclip-5</masterclipid>
													<name>chain.png</name>
													<enabled>TRUE</enabled>
													<duration>1294705</duration>
													<rate>
														<timebase>30</timebase>
														<ntsc>TRUE</ntsc>
													</rate>
													<start>137</start>
													<end>256</end>
													<in>107892</in>
													<out>108011</out>
													<pproTicksIn>914456685542400</pproTicksIn>
													<pproTicksOut>915465289939200</pproTicksOut>
													<alphatype>straight</alphatype>
													<pixelaspectratio>square</pixelaspectratio>
													<anamorphic>FALSE</anamorphic>
													<file id="file-4">
														<name>chain.png</name>
														<pathurl>file://localhost/Users/Scott-T/Documents/chain.png</pathurl>
														<rate>
															<timebase>30</timebase>
															<ntsc>TRUE</ntsc>
														</rate>
														<timecode>
															<rate>
																<timebase>30</timebase>
																<ntsc>TRUE</ntsc>
															</rate>
															<string>00:00:00:00</string>
															<frame>0</frame>
															<displayformat>NDF</displayformat>
														</timecode>
														<media>
															<video>
																<samplecharacteristics>
																	<rate>
																		<timebase>30</timebase>
																		<ntsc>TRUE</ntsc>
																	</rate>
																	<width>89</width>
																	<height>4706</height>
																	<anamorphic>FALSE</anamorphic>
																	<pixelaspectratio>square</pixelaspectratio>
																	<fielddominance>none</fielddominance>
																</samplecharacteristics>
															</video>
														</media>
													</file>
													<logginginfo>
														<description></description>
														<scene></scene>
														<shottake></shottake>
														<lognote></lognote>
														<good></good>
														<originalvideofilename></originalvideofilename>
														<originalaudiofilename></originalaudiofilename>
													</logginginfo>
													<colorinfo>
														<lut></lut>
														<lut1></lut1>
														<asc_sop></asc_sop>
														<asc_sat></asc_sat>
														<lut2></lut2>
													</colorinfo>
													<labels>
														<label2>Lavender</label2>
													</labels>
												</clipitem>
												<clipitem id="clipitem-7">
													<masterclipid>masterclip-6</masterclipid>
													<name>new text.png</name>
													<enabled>TRUE</enabled>
													<duration>1294705</duration>
													<rate>
														<timebase>30</timebase>
														<ntsc>TRUE</ntsc>
													</rate>
													<start>256</start>
													<end>381</end>
													<in>107892</in>
													<out>108017</out>
													<pproTicksIn>914456685542400</pproTicksIn>
													<pproTicksOut>915516143942400</pproTicksOut>
													<alphatype>straight</alphatype>
													<pixelaspectratio>square</pixelaspectratio>
													<anamorphic>FALSE</anamorphic>
													<file id="file-5">
														<name>new text.png</name>
														<pathurl>file://localhost/Users/Scott-T/Documents/new%20text.png</pathurl>
														<rate>
															<timebase>30</timebase>
															<ntsc>TRUE</ntsc>
														</rate>
														<timecode>
															<rate>
																<timebase>30</timebase>
																<ntsc>TRUE</ntsc>
															</rate>
															<string>00:00:20:29</string>
															<frame>629</frame>
															<displayformat>NDF</displayformat>
														</timecode>
														<media>
															<video>
																<samplecharacteristics>
																	<rate>
																		<timebase>30</timebase>
																		<ntsc>TRUE</ntsc>
																	</rate>
																	<width>1000</width>
																	<height>1000</height>
																	<anamorphic>FALSE</anamorphic>
																	<pixelaspectratio>square</pixelaspectratio>
																	<fielddominance>none</fielddominance>
																</samplecharacteristics>
															</video>
														</media>
													</file>
													<logginginfo>
														<description></description>
														<scene></scene>
														<shottake></shottake>
														<lognote></lognote>
														<good></good>
														<originalvideofilename></originalvideofilename>
														<originalaudiofilename></originalaudiofilename>
													</logginginfo>
													<colorinfo>
														<lut></lut>
														<lut1></lut1>
														<asc_sop></asc_sop>
														<asc_sat></asc_sat>
														<lut2></lut2>
													</colorinfo>
													<labels>
														<label2>Lavender</label2>
													</labels>
												</clipitem>
												<clipitem id="clipitem-8">
													<masterclipid>masterclip-7</masterclipid>
													<name>animal rahat.png</name>
													<enabled>TRUE</enabled>
													<duration>1294705</duration>
													<rate>
														<timebase>30</timebase>
														<ntsc>TRUE</ntsc>
													</rate>
													<start>381</start>
													<end>530</end>
													<in>107892</in>
													<out>108041</out>
													<pproTicksIn>914456685542400</pproTicksIn>
													<pproTicksOut>915719559955200</pproTicksOut>
													<alphatype>straight</alphatype>
													<pixelaspectratio>square</pixelaspectratio>
													<anamorphic>FALSE</anamorphic>
													<file id="file-6">
														<name>animal rahat.png</name>
														<pathurl>file://localhost/Users/Scott-T/Documents/animal%20rahat.png</pathurl>
														<rate>
															<timebase>30</timebase>
															<ntsc>TRUE</ntsc>
														</rate>
														<timecode>
															<rate>
																<timebase>30</timebase>
																<ntsc>TRUE</ntsc>
															</rate>
															<string>00:00:00:00</string>
															<frame>0</frame>
															<displayformat>NDF</displayformat>
														</timecode>
														<media>
															<video>
																<samplecharacteristics>
																	<rate>
																		<timebase>30</timebase>
																		<ntsc>TRUE</ntsc>
																	</rate>
																	<width>720</width>
																	<height>405</height>
																	<anamorphic>FALSE</anamorphic>
																	<pixelaspectratio>square</pixelaspectratio>
																	<fielddominance>none</fielddominance>
																</samplecharacteristics>
															</video>
														</media>
													</file>
													<logginginfo>
														<description></description>
														<scene></scene>
														<shottake></shottake>
														<lognote></lognote>
														<good></good>
														<originalvideofilename></originalvideofilename>
														<originalaudiofilename></originalaudiofilename>
													</logginginfo>
													<colorinfo>
														<lut></lut>
														<lut1></lut1>
														<asc_sop></asc_sop>
														<asc_sat></asc_sat>
														<lut2></lut2>
													</colorinfo>
													<labels>
													</labels>
												</clipitem>
												<enabled>TRUE</enabled>
												<locked>FALSE</locked>
											</track>
											<track TL.SQTrackShy="0" TL.SQTrackExpandedHeight="25" TL.SQTrackExpanded="0" MZ.TrackTargeted="0">
												<enabled>TRUE</enabled>
												<locked>FALSE</locked>
											</track>
											<track TL.SQTrackShy="0" TL.SQTrackExpandedHeight="25" TL.SQTrackExpanded="0" MZ.TrackTargeted="0">
												<enabled>TRUE</enabled>
												<locked>FALSE</locked>
											</track>
										</video>
										<audio>
											<numOutputChannels>2</numOutputChannels>
											<format>
												<samplecharacteristics>
													<depth>16</depth>
													<samplerate>32000</samplerate>
												</samplecharacteristics>
											</format>
											<outputs>
												<group>
													<index>1</index>
													<numchannels>1</numchannels>
													<downmix>0</downmix>
													<channel>
														<index>1</index>
													</channel>
												</group>
												<group>
													<index>2</index>
													<numchannels>1</numchannels>
													<downmix>0</downmix>
													<channel>
														<index>2</index>
													</channel>
												</group>
											</outputs>
											<track TL.SQTrackAudioKeyframeStyle="0" TL.SQTrackShy="0" TL.SQTrackExpandedHeight="25" TL.SQTrackExpanded="0" MZ.TrackTargeted="1" PannerCurrentValue="0.5" PannerIsInverted="true" PannerStartKeyframe="-91445760000000000,0.5,0,0,0,0,0,0" PannerName="Balance" currentExplodedTrackIndex="0" totalExplodedTrackCount="2" premiereTrackType="Stereo">
												<enabled>TRUE</enabled>
												<locked>FALSE</locked>
												<outputchannelindex>1</outputchannelindex>
											</track>
											<track TL.SQTrackAudioKeyframeStyle="0" TL.SQTrackShy="0" TL.SQTrackExpandedHeight="25" TL.SQTrackExpanded="0" MZ.TrackTargeted="1" PannerCurrentValue="0.5" PannerIsInverted="true" PannerStartKeyframe="-91445760000000000,0.5,0,0,0,0,0,0" PannerName="Balance" currentExplodedTrackIndex="1" totalExplodedTrackCount="2" premiereTrackType="Stereo">
												<enabled>TRUE</enabled>
												<locked>FALSE</locked>
												<outputchannelindex>2</outputchannelindex>
											</track>
											<track TL.SQTrackAudioKeyframeStyle="0" TL.SQTrackShy="0" TL.SQTrackExpandedHeight="25" TL.SQTrackExpanded="0" MZ.TrackTargeted="1" PannerCurrentValue="0.5" PannerIsInverted="true" PannerStartKeyframe="-91445760000000000,0.5,0,0,0,0,0,0" PannerName="Balance" currentExplodedTrackIndex="0" totalExplodedTrackCount="2" premiereTrackType="Stereo">
												<enabled>TRUE</enabled>
												<locked>FALSE</locked>
												<outputchannelindex>1</outputchannelindex>
											</track>
											<track TL.SQTrackAudioKeyframeStyle="0" TL.SQTrackShy="0" TL.SQTrackExpandedHeight="25" TL.SQTrackExpanded="0" MZ.TrackTargeted="1" PannerCurrentValue="0.5" PannerIsInverted="true" PannerStartKeyframe="-91445760000000000,0.5,0,0,0,0,0,0" PannerName="Balance" currentExplodedTrackIndex="1" totalExplodedTrackCount="2" premiereTrackType="Stereo">
												<enabled>TRUE</enabled>
												<locked>FALSE</locked>
												<outputchannelindex>2</outputchannelindex>
											</track>
											<track TL.SQTrackAudioKeyframeStyle="0" TL.SQTrackShy="0" TL.SQTrackExpandedHeight="25" TL.SQTrackExpanded="0" MZ.TrackTargeted="1" PannerCurrentValue="0.5" PannerIsInverted="true" PannerStartKeyframe="-91445760000000000,0.5,0,0,0,0,0,0" PannerName="Balance" currentExplodedTrackIndex="0" totalExplodedTrackCount="2" premiereTrackType="Stereo">
												<enabled>TRUE</enabled>
												<locked>FALSE</locked>
												<outputchannelindex>1</outputchannelindex>
											</track>
											<track TL.SQTrackAudioKeyframeStyle="0" TL.SQTrackShy="0" TL.SQTrackExpandedHeight="25" TL.SQTrackExpanded="0" MZ.TrackTargeted="1" PannerCurrentValue="0.5" PannerIsInverted="true" PannerStartKeyframe="-91445760000000000,0.5,0,0,0,0,0,0" PannerName="Balance" currentExplodedTrackIndex="1" totalExplodedTrackCount="2" premiereTrackType="Stereo">
												<enabled>TRUE</enabled>
												<locked>FALSE</locked>
												<outputchannelindex>2</outputchannelindex>
											</track>
										</audio>
									</media>
									<timecode>
										<rate>
											<timebase>30</timebase>
											<ntsc>TRUE</ntsc>
										</rate>
										<string>00;00;00;00</string>
										<frame>0</frame>
										<displayformat>DF</displayformat>
									</timecode>
								</sequence>
								<labels>
									<label2>Forest</label2>
								</labels>
							</clipitem>
							<clipitem id="clipitem-9">
								<masterclipid>masterclip-3</masterclipid>
								<name>Sequence 02</name>
								<enabled>TRUE</enabled>
								<duration>2455</duration>
								<rate>
									<timebase>30</timebase>
									<ntsc>TRUE</ntsc>
								</rate>
								<start>368</start>
								<end>487</end>
								<in>275</in>
								<out>394</out>
								<pproTicksIn>2330808480000</pproTicksIn>
								<pproTicksOut>3339412876800</pproTicksOut>
								<sequence id="sequence-2"/>
								<labels>
									<label2>Forest</label2>
								</labels>
							</clipitem>
							<clipitem id="clipitem-10">
								<masterclipid>masterclip-7</masterclipid>
								<name>animal rahat.png</name>
								<enabled>TRUE</enabled>
								<duration>1294705</duration>
								<rate>
									<timebase>30</timebase>
									<ntsc>TRUE</ntsc>
								</rate>
								<start>487</start>
								<end>551</end>
								<in>107892</in>
								<out>107956</out>
								<pproTicksIn>914456685542400</pproTicksIn>
								<pproTicksOut>914999128243200</pproTicksOut>
								<alphatype>straight</alphatype>
								<file id="file-6"/>
								<logginginfo>
									<description></description>
									<scene></scene>
									<shottake></shottake>
									<lognote></lognote>
									<good></good>
									<originalvideofilename></originalvideofilename>
									<originalaudiofilename></originalaudiofilename>
								</logginginfo>
								<colorinfo>
									<lut></lut>
									<lut1></lut1>
									<asc_sop></asc_sop>
									<asc_sat></asc_sat>
									<lut2></lut2>
								</colorinfo>
								<labels>
									<label2>Lavender</label2>
								</labels>
							</clipitem>
							<enabled>TRUE</enabled>
							<locked>FALSE</locked>
						</track>
						<track TL.SQTrackShy="0" TL.SQTrackExpandedHeight="25" TL.SQTrackExpanded="0" MZ.TrackTargeted="0">
							<clipitem id="clipitem-11">
								<masterclipid>masterclip-8</masterclipid>
								<name>nosey email.png</name>
								<enabled>TRUE</enabled>
								<duration>1294705</duration>
								<rate>
									<timebase>30</timebase>
									<ntsc>TRUE</ntsc>
								</rate>
								<start>313</start>
								<end>462</end>
								<in>107892</in>
								<out>108041</out>
								<pproTicksIn>914456685542400</pproTicksIn>
								<pproTicksOut>915719559955200</pproTicksOut>
								<alphatype>none</alphatype>
								<pixelaspectratio>square</pixelaspectratio>
								<anamorphic>FALSE</anamorphic>
								<file id="file-7">
									<name>nosey email.png</name>
									<pathurl>file://localhost/Users/Scott-T/Documents/nosey%20email.png</pathurl>
									<rate>
										<timebase>30</timebase>
										<ntsc>TRUE</ntsc>
									</rate>
									<timecode>
										<rate>
											<timebase>30</timebase>
											<ntsc>TRUE</ntsc>
										</rate>
										<string>00:00:00:00</string>
										<frame>0</frame>
										<displayformat>NDF</displayformat>
									</timecode>
									<media>
										<video>
											<samplecharacteristics>
												<rate>
													<timebase>30</timebase>
													<ntsc>TRUE</ntsc>
												</rate>
												<width>2098</width>
												<height>4000</height>
												<anamorphic>FALSE</anamorphic>
												<pixelaspectratio>square</pixelaspectratio>
												<fielddominance>none</fielddominance>
											</samplecharacteristics>
										</video>
									</media>
								</file>
								<filter>
									<effect>
										<name>Basic Motion</name>
										<effectid>basic</effectid>
										<effectcategory>motion</effectcategory>
										<effecttype>motion</effecttype>
										<mediatype>video</mediatype>
										<pproBypass>false</pproBypass>
										<parameter authoringApp="PremierePro">
											<parameterid>scale</parameterid>
											<name>Scale</name>
											<valuemin>0</valuemin>
											<valuemax>1000</valuemax>
											<value>13</value>
										</parameter>
										<parameter authoringApp="PremierePro">
											<parameterid>rotation</parameterid>
											<name>Rotation</name>
											<valuemin>-8640</valuemin>
											<valuemax>8640</valuemax>
											<value>0</value>
										</parameter>
										<parameter authoringApp="PremierePro">
											<parameterid>center</parameterid>
											<name>Center</name>
											<value>
												<horiz>0.131554</horiz>
												<vert>0</vert>
											</value>
										</parameter>
										<parameter authoringApp="PremierePro">
											<parameterid>centerOffset</parameterid>
											<name>Anchor Point</name>
											<value>
												<horiz>0</horiz>
												<vert>0</vert>
											</value>
										</parameter>
										<parameter authoringApp="PremierePro">
											<parameterid>antiflicker</parameterid>
											<name>Anti-flicker Filter</name>
											<valuemin>0.0</valuemin>
											<valuemax>1.0</valuemax>
											<value>0</value>
										</parameter>
									</effect>
								</filter>
								<logginginfo>
									<description></description>
									<scene></scene>
									<shottake></shottake>
									<lognote></lognote>
									<good></good>
									<originalvideofilename></originalvideofilename>
									<originalaudiofilename></originalaudiofilename>
								</logginginfo>
								<colorinfo>
									<lut></lut>
									<lut1></lut1>
									<asc_sop></asc_sop>
									<asc_sat></asc_sat>
									<lut2></lut2>
								</colorinfo>
								<labels>
									<label2>Lavender</label2>
								</labels>
							</clipitem>
							<enabled>TRUE</enabled>
							<locked>FALSE</locked>
						</track>
						<track TL.SQTrackShy="0" TL.SQTrackExpandedHeight="25" TL.SQTrackExpanded="0" MZ.TrackTargeted="0">
							<enabled>TRUE</enabled>
							<locked>FALSE</locked>
						</track>
					</video>
					<audio>
						<numOutputChannels>2</numOutputChannels>
						<format>
							<samplecharacteristics>
								<depth>16</depth>
								<samplerate>32000</samplerate>
							</samplecharacteristics>
						</format>
						<outputs>
							<group>
								<index>1</index>
								<numchannels>1</numchannels>
								<downmix>0</downmix>
								<channel>
									<index>1</index>
								</channel>
							</group>
							<group>
								<index>2</index>
								<numchannels>1</numchannels>
								<downmix>0</downmix>
								<channel>
									<index>2</index>
								</channel>
							</group>
						</outputs>
						<track TL.SQTrackAudioKeyframeStyle="0" TL.SQTrackShy="0" TL.SQTrackExpandedHeight="25" TL.SQTrackExpanded="0" MZ.TrackTargeted="1" PannerCurrentValue="0.5" PannerIsInverted="true" PannerStartKeyframe="-91445760000000000,0.5,0,0,0,0,0,0" PannerName="Balance" currentExplodedTrackIndex="0" totalExplodedTrackCount="2" premiereTrackType="Stereo">
							<enabled>TRUE</enabled>
							<locked>FALSE</locked>
							<outputchannelindex>1</outputchannelindex>
						</track>
						<track TL.SQTrackAudioKeyframeStyle="0" TL.SQTrackShy="0" TL.SQTrackExpandedHeight="25" TL.SQTrackExpanded="0" MZ.TrackTargeted="1" PannerCurrentValue="0.5" PannerIsInverted="true" PannerStartKeyframe="-91445760000000000,0.5,0,0,0,0,0,0" PannerName="Balance" currentExplodedTrackIndex="1" totalExplodedTrackCount="2" premiereTrackType="Stereo">
							<enabled>TRUE</enabled>
							<locked>FALSE</locked>
							<outputchannelindex>2</outputchannelindex>
						</track>
						<track TL.SQTrackAudioKeyframeStyle="0" TL.SQTrackShy="0" TL.SQTrackExpandedHeight="25" TL.SQTrackExpanded="0" MZ.TrackTargeted="1" PannerCurrentValue="0.5" PannerIsInverted="true" PannerStartKeyframe="-91445760000000000,0.5,0,0,0,0,0,0" PannerName="Balance" currentExplodedTrackIndex="0" totalExplodedTrackCount="2" premiereTrackType="Stereo">
							<enabled>TRUE</enabled>
							<locked>FALSE</locked>
							<outputchannelindex>1</outputchannelindex>
						</track>
						<track TL.SQTrackAudioKeyframeStyle="0" TL.SQTrackShy="0" TL.SQTrackExpandedHeight="25" TL.SQTrackExpanded="0" MZ.TrackTargeted="1" PannerCurrentValue="0.5" PannerIsInverted="true" PannerStartKeyframe="-91445760000000000,0.5,0,0,0,0,0,0" PannerName="Balance" currentExplodedTrackIndex="1" totalExplodedTrackCount="2" premiereTrackType="Stereo">
							<enabled>TRUE</enabled>
							<locked>FALSE</locked>
							<outputchannelindex>2</outputchannelindex>
						</track>
						<track TL.SQTrackAudioKeyframeStyle="0" TL.SQTrackShy="0" TL.SQTrackExpandedHeight="25" TL.SQTrackExpanded="0" MZ.TrackTargeted="1" PannerCurrentValue="0.5" PannerIsInverted="true" PannerStartKeyframe="-91445760000000000,0.5,0,0,0,0,0,0" PannerName="Balance" currentExplodedTrackIndex="0" totalExplodedTrackCount="2" premiereTrackType="Stereo">
							<enabled>TRUE</enabled>
							<locked>FALSE</locked>
							<outputchannelindex>1</outputchannelindex>
						</track>
						<track TL.SQTrackAudioKeyframeStyle="0" TL.SQTrackShy="0" TL.SQTrackExpandedHeight="25" TL.SQTrackExpanded="0" MZ.TrackTargeted="1" PannerCurrentValue="0.5" PannerIsInverted="true" PannerStartKeyframe="-91445760000000000,0.5,0,0,0,0,0,0" PannerName="Balance" currentExplodedTrackIndex="1" totalExplodedTrackCount="2" premiereTrackType="Stereo">
							<enabled>TRUE</enabled>
							<locked>FALSE</locked>
							<outputchannelindex>2</outputchannelindex>
						</track>
					</audio>
				</media>
				<timecode>
					<rate>
						<timebase>30</timebase>
						<ntsc>TRUE</ntsc>
					</rate>
					<string>00:00:00:00</string>
					<frame>0</frame>
					<displayformat>NDF</displayformat>
				</timecode>
				<labels>
					<label2>Forest</label2>
				</labels>
			</sequence>
<sequence id="sequence-2"/>
			<clip id="masterclip-1" explodedTracks="true">
				<uuid>793d6729-f2aa-49f6-a19c-38ae520c884e</uuid>
				<masterclipid>masterclip-1</masterclipid>
				<ismasterclip>TRUE</ismasterclip>
				<duration>307</duration>
				<rate>
					<timebase>30</timebase>
					<ntsc>FALSE</ntsc>
				</rate>
				<name>text.mp4</name>
				<media>
					<video>
						<track>
							<clipitem id="clipitem-12">
								<masterclipid>masterclip-1</masterclipid>
								<name>text.mp4</name>
								<rate>
									<timebase>30</timebase>
									<ntsc>FALSE</ntsc>
								</rate>
								<alphatype>none</alphatype>
								<file id="file-1"/>
								<link>
									<linkclipref>clipitem-12</linkclipref>
									<mediatype>video</mediatype>
									<trackindex>1</trackindex>
									<clipindex>1</clipindex>
								</link>
								<link>
									<linkclipref>clipitem-13</linkclipref>
									<mediatype>audio</mediatype>
									<trackindex>1</trackindex>
									<clipindex>1</clipindex>
									<groupindex>1</groupindex>
								</link>
								<link>
									<linkclipref>clipitem-14</linkclipref>
									<mediatype>audio</mediatype>
									<trackindex>2</trackindex>
									<clipindex>1</clipindex>
									<groupindex>1</groupindex>
								</link>
							</clipitem>
						</track>
					</video>
					<audio>
						<track>
							<clipitem id="clipitem-13">
								<masterclipid>masterclip-1</masterclipid>
								<name>text.mp4</name>
								<rate>
									<timebase>30</timebase>
									<ntsc>FALSE</ntsc>
								</rate>
								<file id="file-1"/>
								<sourcetrack>
									<mediatype>audio</mediatype>
									<trackindex>1</trackindex>
								</sourcetrack>
								<link>
									<linkclipref>clipitem-12</linkclipref>
									<mediatype>video</mediatype>
									<trackindex>1</trackindex>
									<clipindex>1</clipindex>
								</link>
								<link>
									<linkclipref>clipitem-13</linkclipref>
									<mediatype>audio</mediatype>
									<trackindex>1</trackindex>
									<clipindex>1</clipindex>
									<groupindex>1</groupindex>
								</link>
								<link>
									<linkclipref>clipitem-14</linkclipref>
									<mediatype>audio</mediatype>
									<trackindex>2</trackindex>
									<clipindex>1</clipindex>
									<groupindex>1</groupindex>
								</link>
							</clipitem>
						</track>
						<track>
							<clipitem id="clipitem-14">
								<masterclipid>masterclip-1</masterclipid>
								<name>text.mp4</name>
								<rate>
									<timebase>30</timebase>
									<ntsc>FALSE</ntsc>
								</rate>
								<file id="file-1"/>
								<sourcetrack>
									<mediatype>audio</mediatype>
									<trackindex>2</trackindex>
								</sourcetrack>
								<link>
									<linkclipref>clipitem-12</linkclipref>
									<mediatype>video</mediatype>
									<trackindex>1</trackindex>
									<clipindex>1</clipindex>
								</link>
								<link>
									<linkclipref>clipitem-13</linkclipref>
									<mediatype>audio</mediatype>
									<trackindex>1</trackindex>
									<clipindex>1</clipindex>
									<groupindex>1</groupindex>
								</link>
								<link>
									<linkclipref>clipitem-14</linkclipref>
									<mediatype>audio</mediatype>
									<trackindex>2</trackindex>
									<clipindex>1</clipindex>
									<groupindex>1</groupindex>
								</link>
							</clipitem>
						</track>
					</audio>
				</media>
				<logginginfo>
					<description></description>
					<scene></scene>
					<shottake></shottake>
					<lognote></lognote>
					<good></good>
					<originalvideofilename></originalvideofilename>
					<originalaudiofilename></originalaudiofilename>
				</logginginfo>
				<colorinfo>
					<lut></lut>
					<lut1></lut1>
					<asc_sop></asc_sop>
					<asc_sat></asc_sat>
					<lut2></lut2>
				</colorinfo>
				<labels>
					<label2>Iris</label2>
				</labels>
			</clip>
			<clip id="masterclip-2" explodedTracks="true">
				<uuid>087a0c62-7394-4f1a-b6d6-628ec930a162</uuid>
				<masterclipid>masterclip-2</masterclipid>
				<ismasterclip>TRUE</ismasterclip>
				<duration>2341</duration>
				<rate>
					<timebase>30</timebase>
					<ntsc>TRUE</ntsc>
				</rate>
				<name>jan viv tamu c6.mp4</name>
				<media>
					<video>
						<track>
							<clipitem id="clipitem-15">
								<masterclipid>masterclip-2</masterclipid>
								<name>jan viv tamu c6.mp4</name>
								<rate>
									<timebase>30</timebase>
									<ntsc>TRUE</ntsc>
								</rate>
								<alphatype>none</alphatype>
								<file id="file-2"/>
								<link>
									<linkclipref>clipitem-15</linkclipref>
									<mediatype>video</mediatype>
									<trackindex>1</trackindex>
									<clipindex>1</clipindex>
								</link>
								<link>
									<linkclipref>clipitem-16</linkclipref>
									<mediatype>audio</mediatype>
									<trackindex>1</trackindex>
									<clipindex>1</clipindex>
									<groupindex>1</groupindex>
								</link>
								<link>
									<linkclipref>clipitem-17</linkclipref>
									<mediatype>audio</mediatype>
									<trackindex>2</trackindex>
									<clipindex>1</clipindex>
									<groupindex>1</groupindex>
								</link>
							</clipitem>
						</track>
					</video>
					<audio>
						<track>
							<clipitem id="clipitem-16">
								<masterclipid>masterclip-2</masterclipid>
								<name>jan viv tamu c6.mp4</name>
								<rate>
									<timebase>30</timebase>
									<ntsc>TRUE</ntsc>
								</rate>
								<file id="file-2"/>
								<sourcetrack>
									<mediatype>audio</mediatype>
									<trackindex>1</trackindex>
								</sourcetrack>
								<link>
									<linkclipref>clipitem-15</linkclipref>
									<mediatype>video</mediatype>
									<trackindex>1</trackindex>
									<clipindex>1</clipindex>
								</link>
								<link>
									<linkclipref>clipitem-16</linkclipref>
									<mediatype>audio</mediatype>
									<trackindex>1</trackindex>
									<clipindex>1</clipindex>
									<groupindex>1</groupindex>
								</link>
								<link>
									<linkclipref>clipitem-17</linkclipref>
									<mediatype>audio</mediatype>
									<trackindex>2</trackindex>
									<clipindex>1</clipindex>
									<groupindex>1</groupindex>
								</link>
							</clipitem>
						</track>
						<track>
							<clipitem id="clipitem-17">
								<masterclipid>masterclip-2</masterclipid>
								<name>jan viv tamu c6.mp4</name>
								<rate>
									<timebase>30</timebase>
									<ntsc>TRUE</ntsc>
								</rate>
								<file id="file-2"/>
								<sourcetrack>
									<mediatype>audio</mediatype>
									<trackindex>2</trackindex>
								</sourcetrack>
								<link>
									<linkclipref>clipitem-15</linkclipref>
									<mediatype>video</mediatype>
									<trackindex>1</trackindex>
									<clipindex>1</clipindex>
								</link>
								<link>
									<linkclipref>clipitem-16</linkclipref>
									<mediatype>audio</mediatype>
									<trackindex>1</trackindex>
									<clipindex>1</clipindex>
									<groupindex>1</groupindex>
								</link>
								<link>
									<linkclipref>clipitem-17</linkclipref>
									<mediatype>audio</mediatype>
									<trackindex>2</trackindex>
									<clipindex>1</clipindex>
									<groupindex>1</groupindex>
								</link>
							</clipitem>
						</track>
					</audio>
				</media>
				<logginginfo>
					<description></description>
					<scene></scene>
					<shottake></shottake>
					<lognote></lognote>
					<good></good>
					<originalvideofilename></originalvideofilename>
					<originalaudiofilename></originalaudiofilename>
				</logginginfo>
				<colorinfo>
					<lut></lut>
					<lut1></lut1>
					<asc_sop></asc_sop>
					<asc_sat></asc_sat>
					<lut2></lut2>
				</colorinfo>
				<labels>
					<label2>Iris</label2>
				</labels>
			</clip>
			<clip id="masterclip-4" explodedTracks="true">
				<uuid>a661ae2a-4631-40f1-8717-8b0f9d96a1d2</uuid>
				<masterclipid>masterclip-4</masterclipid>
				<ismasterclip>TRUE</ismasterclip>
				<duration>150</duration>
				<rate>
					<timebase>30</timebase>
					<ntsc>TRUE</ntsc>
				</rate>
				<in>0</in>
				<out>149</out>
				<name>chad.png</name>
				<media>
					<video>
						<track>
							<clipitem id="clipitem-18">
								<masterclipid>masterclip-4</masterclipid>
								<name>chad.png</name>
								<rate>
									<timebase>30</timebase>
									<ntsc>TRUE</ntsc>
								</rate>
								<alphatype>straight</alphatype>
								<file id="file-3"/>
							</clipitem>
						</track>
					</video>
				</media>
				<logginginfo>
					<description></description>
					<scene></scene>
					<shottake></shottake>
					<lognote></lognote>
					<good></good>
					<originalvideofilename></originalvideofilename>
					<originalaudiofilename></originalaudiofilename>
				</logginginfo>
				<colorinfo>
					<lut></lut>
					<lut1></lut1>
					<asc_sop></asc_sop>
					<asc_sat></asc_sat>
					<lut2></lut2>
				</colorinfo>
				<labels>
					<label2>Lavender</label2>
				</labels>
			</clip>
			<clip id="masterclip-5" explodedTracks="true">
				<uuid>2e302b24-a24c-43d9-b7b5-1a5d4504720d</uuid>
				<masterclipid>masterclip-5</masterclipid>
				<ismasterclip>TRUE</ismasterclip>
				<duration>150</duration>
				<rate>
					<timebase>30</timebase>
					<ntsc>TRUE</ntsc>
				</rate>
				<in>0</in>
				<out>149</out>
				<name>chain.png</name>
				<media>
					<video>
						<track>
							<clipitem id="clipitem-19">
								<masterclipid>masterclip-5</masterclipid>
								<name>chain.png</name>
								<rate>
									<timebase>30</timebase>
									<ntsc>TRUE</ntsc>
								</rate>
								<alphatype>straight</alphatype>
								<file id="file-4"/>
							</clipitem>
						</track>
					</video>
				</media>
				<logginginfo>
					<description></description>
					<scene></scene>
					<shottake></shottake>
					<lognote></lognote>
					<good></good>
					<originalvideofilename></originalvideofilename>
					<originalaudiofilename></originalaudiofilename>
				</logginginfo>
				<colorinfo>
					<lut></lut>
					<lut1></lut1>
					<asc_sop></asc_sop>
					<asc_sat></asc_sat>
					<lut2></lut2>
				</colorinfo>
				<labels>
					<label2>Lavender</label2>
				</labels>
			</clip>
			<clip id="masterclip-6" explodedTracks="true">
				<uuid>e5fc8f3f-c613-4e5e-9f57-5bc126fb97f7</uuid>
				<masterclipid>masterclip-6</masterclipid>
				<ismasterclip>TRUE</ismasterclip>
				<duration>150</duration>
				<rate>
					<timebase>30</timebase>
					<ntsc>TRUE</ntsc>
				</rate>
				<in>0</in>
				<out>149</out>
				<name>new text.png</name>
				<media>
					<video>
						<track>
							<clipitem id="clipitem-20">
								<masterclipid>masterclip-6</masterclipid>
								<name>new text.png</name>
								<rate>
									<timebase>30</timebase>
									<ntsc>TRUE</ntsc>
								</rate>
								<alphatype>straight</alphatype>
								<file id="file-5"/>
							</clipitem>
						</track>
					</video>
				</media>
				<logginginfo>
					<description></description>
					<scene></scene>
					<shottake></shottake>
					<lognote></lognote>
					<good></good>
					<originalvideofilename></originalvideofilename>
					<originalaudiofilename></originalaudiofilename>
				</logginginfo>
				<colorinfo>
					<lut></lut>
					<lut1></lut1>
					<asc_sop></asc_sop>
					<asc_sat></asc_sat>
					<lut2></lut2>
				</colorinfo>
				<labels>
					<label2>Lavender</label2>
				</labels>
			</clip>
			<clip id="masterclip-7" explodedTracks="true">
				<uuid>13430981-ed92-4322-a49b-823d8f8e756d</uuid>
				<masterclipid>masterclip-7</masterclipid>
				<ismasterclip>TRUE</ismasterclip>
				<duration>150</duration>
				<rate>
					<timebase>30</timebase>
					<ntsc>TRUE</ntsc>
				</rate>
				<in>0</in>
				<out>149</out>
				<name>animal rahat.png</name>
				<media>
					<video>
						<track>
							<clipitem id="clipitem-21">
								<masterclipid>masterclip-7</masterclipid>
								<name>animal rahat.png</name>
								<rate>
									<timebase>30</timebase>
									<ntsc>TRUE</ntsc>
								</rate>
								<alphatype>straight</alphatype>
								<file id="file-6"/>
							</clipitem>
						</track>
					</video>
				</media>
				<logginginfo>
					<description></description>
					<scene></scene>
					<shottake></shottake>
					<lognote></lognote>
					<good></good>
					<originalvideofilename></originalvideofilename>
					<originalaudiofilename></originalaudiofilename>
				</logginginfo>
				<colorinfo>
					<lut></lut>
					<lut1></lut1>
					<asc_sop></asc_sop>
					<asc_sat></asc_sat>
					<lut2></lut2>
				</colorinfo>
				<labels>
					<label2>Lavender</label2>
				</labels>
			</clip>
			<clip id="masterclip-8" explodedTracks="true">
				<uuid>37ab8b39-4464-4dab-a667-ab50fc7dfff8</uuid>
				<masterclipid>masterclip-8</masterclipid>
				<ismasterclip>TRUE</ismasterclip>
				<duration>150</duration>
				<rate>
					<timebase>30</timebase>
					<ntsc>TRUE</ntsc>
				</rate>
				<in>0</in>
				<out>149</out>
				<name>nosey email.png</name>
				<media>
					<video>
						<track>
							<clipitem id="clipitem-22">
								<masterclipid>masterclip-8</masterclipid>
								<name>nosey email.png</name>
								<rate>
									<timebase>30</timebase>
									<ntsc>TRUE</ntsc>
								</rate>
								<alphatype>none</alphatype>
								<file id="file-7"/>
							</clipitem>
						</track>
					</video>
				</media>
				<logginginfo>
					<description></description>
					<scene></scene>
					<shottake></shottake>
					<lognote></lognote>
					<good></good>
					<originalvideofilename></originalvideofilename>
					<originalaudiofilename></originalaudiofilename>
				</logginginfo>
				<colorinfo>
					<lut></lut>
					<lut1></lut1>
					<asc_sop></asc_sop>
					<asc_sat></asc_sat>
					<lut2></lut2>
				</colorinfo>
				<labels>
					<label2>Lavender</label2>
				</labels>
			</clip>
		</children>
	</project>
</xmeml>
